<svg width="173" height="64" viewBox="0 0 173 64" fill="none" xmlns="http://www.w3.org/2000/svg">
<path d="M23.406 43.7656C23.0153 44.2187 22.5466 44.375 21.9997 44.0469C16.3903 40.7187 11.3747 36.7344 7.7966 31.1719C5.2341 27.2031 3.7966 22.875 3.9841 18.0937C4.28097 10.5625 9.28097 4.26562 16.406 2.54687C20.8903 1.46874 25.0935 2.40624 29.0778 4.56249C29.7185 4.90624 30.1716 4.89062 30.8122 4.54687C36.0153 1.78124 41.3903 1.04687 46.8122 3.76562C52.2185 6.48437 55.1091 11.0781 55.7497 17.0156C56.4841 23.9219 53.7341 29.6875 49.3435 34.7812C45.3435 39.4375 40.3591 42.8125 34.9685 45.625C34.7341 45.75 34.4841 45.875 34.2497 46.0156C34.2341 46.1719 34.2185 46.2969 34.2185 46.4375C34.2185 46.7344 34.2185 47.0156 34.2185 47.3906C35.0466 47.3906 35.8435 47.3906 36.6247 47.3906C38.406 47.4062 39.5778 48.5625 39.6091 50.3594C39.6247 51.2344 39.6247 52.1094 39.6091 52.9844C39.5935 54.7656 38.4685 55.9062 36.6872 55.9375C35.8903 55.9531 35.0935 55.9375 34.2185 55.9375C34.2185 56.7656 34.1716 57.5469 34.2341 58.3125C34.3591 60.0625 33.7653 61.3437 32.0466 61.9687C30.6403 61.9687 29.2341 61.9687 27.8435 61.9687C26.1403 61.3594 25.531 60.0937 25.656 58.3594C25.7028 57.5937 25.6716 56.8125 25.6716 55.9375C24.8747 55.9375 24.1247 55.9375 23.3747 55.9375C21.406 55.9219 20.2966 54.8125 20.281 52.8594C20.281 52 20.2653 51.1406 20.281 50.2812C20.3122 48.5625 21.4841 47.3906 23.2028 47.375C23.9997 47.375 24.7966 47.375 25.6091 47.375C25.7497 46.5156 25.5466 45.6875 25.7653 44.9062C26.1091 44.5 26.5153 44.2656 27.0466 44.4844C27.5778 44.7031 27.6872 45.1719 27.6872 45.6875C27.6716 46.5 27.6872 47.3281 27.6716 48.1406C27.656 49.0469 27.3278 49.3594 26.4216 49.375C25.3747 49.375 24.3122 49.375 23.2653 49.375C22.6247 49.375 22.281 49.6875 22.2653 50.3281C22.2497 51.2187 22.2497 52.125 22.2653 53.0156C22.281 53.625 22.5778 53.9531 23.2185 53.9375C24.2653 53.9219 25.3278 53.9219 26.3747 53.9219C27.3122 53.9219 27.6716 54.2812 27.6872 55.2344C27.6872 56.4687 27.7028 57.6875 27.6716 58.9219C27.656 59.6562 27.9685 60 28.7185 59.9844C29.531 59.9687 30.3591 59.9531 31.1716 59.9844C31.9216 60 32.2185 59.6562 32.2185 58.9219C32.2028 57.6719 32.2028 56.4219 32.2185 55.1719C32.2341 54.2969 32.6091 53.9375 33.4841 53.9219C34.531 53.9219 35.5935 53.9062 36.6403 53.9219C37.2966 53.9375 37.6091 53.6406 37.6091 52.9687C37.6091 52.0937 37.5935 51.2187 37.6091 50.3437C37.6247 49.6875 37.3122 49.375 36.6403 49.3906C35.5622 49.4062 34.4997 49.3906 33.4216 49.3906C32.6091 49.3906 32.2028 48.9531 32.2028 48.1406C32.2028 47.2969 32.2185 46.4687 32.2028 45.625C32.1872 45.0312 32.4372 44.6406 32.9685 44.375C33.906 43.9062 34.8435 43.4219 35.7653 42.9062C41.0778 39.9219 45.9216 36.3437 49.5153 31.3281C52.7497 26.8281 54.6091 21.875 53.656 16.25C52.7653 10.9219 49.8903 6.99999 44.7966 5.01562C40.031 3.15624 35.4841 4.10937 31.2028 6.59374C30.2966 7.12499 29.6247 7.15624 28.7028 6.60937C25.2028 4.53124 21.4216 3.53124 17.3435 4.35937C10.7497 5.68749 6.12472 11.4375 5.9841 18.4375C5.87472 23.25 7.57785 27.4687 10.3435 31.3125C13.6403 35.8906 17.9841 39.2812 22.781 42.125C23.4372 42.5625 23.7185 43.0312 23.406 43.7656Z" fill="#F2C4A4"/>
<path d="M23.4063 43.7656C23.7188 43.0312 23.4376 42.5625 22.7813 42.1719C17.9845 39.3281 13.6407 35.9375 10.3438 31.3594C7.57821 27.5156 5.87509 23.2969 5.98446 18.4844C6.14071 11.4844 10.7501 5.73436 17.3438 4.40623C21.422 3.57811 25.2032 4.57811 28.7032 6.65623C29.6251 7.20311 30.297 7.17186 31.2032 6.64061C35.4845 4.14061 40.0313 3.18748 44.797 5.06248C49.8907 7.06248 52.7657 10.9844 53.6563 16.2969C54.5938 21.9219 52.7345 26.875 49.5157 31.375C45.922 36.3906 41.0782 39.9687 35.7657 42.9531C34.8438 43.4687 33.922 43.9531 32.9688 44.4219C32.4376 44.6875 32.1876 45.0937 32.2032 45.6719C32.2188 46.5156 32.2032 47.3437 32.2032 48.1875C32.2032 49 32.6095 49.4219 33.422 49.4375C34.5001 49.4531 35.5626 49.4531 36.6407 49.4375C37.297 49.4375 37.6095 49.7344 37.6095 50.3906C37.5938 51.2656 37.6095 52.1406 37.6095 53.0156C37.6095 53.6719 37.297 53.9687 36.6407 53.9687C35.5938 53.9531 34.5313 53.9531 33.4845 53.9687C32.6095 53.9687 32.2345 54.3437 32.2188 55.2187C32.2032 56.4687 32.2032 57.7187 32.2188 58.9687C32.2345 59.7031 31.922 60.0469 31.172 60.0312C30.3595 60.0156 29.5313 60.0156 28.7188 60.0312C27.9688 60.0469 27.6563 59.7031 27.672 58.9687C27.6876 57.7344 27.6876 56.5156 27.6876 55.2812C27.6876 54.3281 27.3126 53.9687 26.3751 53.9687C25.3282 53.9687 24.2657 53.9687 23.2188 53.9844C22.5782 54 22.2813 53.6562 22.2657 53.0625C22.2501 52.1719 22.2501 51.2656 22.2657 50.375C22.2813 49.7344 22.6251 49.4219 23.2657 49.4219C24.3126 49.4219 25.3751 49.4219 26.422 49.4219C27.3282 49.4219 27.6563 49.0937 27.672 48.1875C27.6876 47.375 27.672 46.5469 27.6876 45.7344C27.6876 45.2187 27.5782 44.75 27.047 44.5312C26.5157 44.3281 26.1095 44.5469 25.7657 44.9531C24.9688 44.5469 24.1876 44.1562 23.4063 43.7656ZM34.2188 37.8906C34.6563 38.3437 35.1251 38.4531 35.6876 38.1094C38.6095 36.3594 41.3126 34.3281 43.5313 31.7031C46.3595 28.3281 48.1563 24.5625 47.8595 20.0156C47.3126 11.7812 39.4688 6.89061 31.8751 10.1562C30.4376 10.7812 29.3907 10.7187 27.9845 10.125C19.172 6.48436 11.3751 13.3437 12.0157 21.875C12.297 25.6875 13.9376 28.8906 16.3907 31.7344C19.9688 35.8906 24.547 38.6094 29.4845 40.7969C29.8751 40.9687 30.2501 40.9375 30.5782 40.6562C30.9845 40.3281 31.0001 39.8906 30.8438 39.4375C31.0626 39.3594 31.297 39.3125 31.5001 39.2187C32.422 38.7812 33.3126 38.3437 34.2188 37.8906Z" fill="#FEF5F2"/>
<path d="M34.2186 37.8906C33.8905 37.1562 34.1717 36.6875 34.8124 36.2968C38.3905 34.1406 41.578 31.5625 43.7811 27.9375C45.6249 24.9062 46.453 21.6562 45.5311 18.1562C43.9999 12.25 37.9686 9.46871 32.2655 12.1875C30.5467 13.0156 29.3124 13.0312 27.5936 12.1875C23.9842 10.4375 20.3436 10.6718 17.2499 13.4218C13.9842 16.3281 13.3436 20.0937 14.4374 24.1562C15.4999 28.0937 18.0467 31.0312 21.1405 33.5625C23.8124 35.75 26.7967 37.4062 29.9374 38.8125C30.2811 38.9687 30.6092 39.125 30.828 39.4375C30.9686 39.8906 30.953 40.3281 30.5624 40.6562C30.2342 40.9375 29.8592 40.9687 29.4686 40.7968C24.5311 38.6093 19.9374 35.8906 16.3749 31.7343C13.9374 28.8906 12.2967 25.6875 11.9999 21.875C11.3592 13.3437 19.1405 6.46871 27.953 10.1406C29.3592 10.7343 30.4061 10.7812 31.8436 10.1718C39.4374 6.90621 47.2811 11.7968 47.828 20.0312C48.1249 24.5625 46.328 28.3437 43.4999 31.7187C41.2967 34.3437 38.5936 36.375 35.6561 38.125C35.1249 38.4531 34.6561 38.3437 34.2186 37.8906Z" fill="#F2C4A4"/>
<path d="M38.8593 23.7344C38.7811 26.0937 37.2655 28.2344 35.1405 30.0312C33.7343 31.2187 32.1405 32.1094 30.453 32.8594C30.1561 32.9844 29.8593 33.0469 29.5468 32.9062C26.8905 31.75 24.453 30.2656 22.703 27.9062C21.1249 25.7656 20.4687 23.4062 21.4062 20.8125C22.5937 17.5625 26.1093 16.1719 29.3905 17.625C29.7812 17.7969 30.0937 17.7969 30.4843 17.625C34.6718 15.8125 38.9061 18.625 38.8593 23.7344ZM22.9999 23.2969C22.9843 23.75 23.1093 24.375 23.3436 24.9844C24.1874 27.1406 25.9061 28.4687 27.7186 29.7656C29.2499 30.875 30.5624 30.8906 32.0936 29.7812C33.9218 28.4687 35.6718 27.125 36.4999 24.9375C37.203 23.1094 36.828 21.1562 35.578 20.0156C34.3749 18.9219 32.578 18.7031 30.953 19.6094C30.203 20.0156 29.6405 20.0312 28.8905 19.625C26.0311 18.0781 22.9999 19.8906 22.9999 23.2969Z" fill="#F2C4A4"/>
<path d="M23.0002 23.2969C22.9846 19.8906 26.0158 18.0938 28.9065 19.625C29.6721 20.0313 30.219 20.0313 30.969 19.6094C32.594 18.7031 34.3908 18.9219 35.594 20.0156C36.844 21.1563 37.219 23.1094 36.5158 24.9375C35.6721 27.125 33.9377 28.4531 32.1096 29.7813C30.5627 30.8906 29.2658 30.8594 27.7346 29.7656C25.9221 28.4688 24.2033 27.1406 23.3596 24.9844C23.1252 24.375 22.9846 23.75 23.0002 23.2969Z" fill="#FEF5F2"/>
<path d="M78.44 4.9375C78.4633 4.78583 78.545 4.675 78.685 4.605C78.8367 4.535 79.0233 4.5 79.245 4.5H90.48C91.005 4.5 91.425 4.395 91.74 4.185C92.055 3.975 92.3642 3.87 92.6675 3.87C93.0058 3.87 93.2158 4.0625 93.2975 4.4475L94.0675 8.98C94.1142 9.20167 94.0967 9.37667 94.015 9.505C93.945 9.63333 93.8283 9.6975 93.665 9.6975C93.4433 9.70917 93.2683 9.65083 93.14 9.5225C93.0117 9.3825 92.8775 9.17833 92.7375 8.91L92.37 7.8425C92.195 7.25917 91.9733 6.78083 91.705 6.4075C91.4367 6.0225 91.1042 5.7425 90.7075 5.5675C90.3225 5.38083 89.8383 5.2875 89.255 5.2875H83.725C83.48 6.18583 83.2117 7.16 82.92 8.21C82.64 9.24833 82.3425 10.3333 82.0275 11.465C81.7242 12.5967 81.415 13.74 81.1 14.895C80.7967 16.05 80.4933 17.1933 80.19 18.325C79.8983 19.445 79.6183 20.5183 79.35 21.545C79.0817 22.5717 78.8367 23.5283 78.615 24.415C78.405 25.29 78.2242 26.0542 78.0725 26.7075C77.9792 27.0225 77.9733 27.2792 78.055 27.4775C78.1483 27.6758 78.3933 27.8042 78.79 27.8625L80.1725 28.0375C80.4875 28.0725 80.7092 28.1308 80.8375 28.2125C80.9775 28.2825 81.0475 28.3758 81.0475 28.4925C81.0475 28.6442 80.9717 28.7667 80.82 28.86C80.6683 28.9533 80.4058 29 80.0325 29H72.84C72.6183 29 72.4608 28.965 72.3675 28.895C72.2742 28.8133 72.2275 28.7025 72.2275 28.5625C72.2508 28.4108 72.3267 28.2942 72.455 28.2125C72.595 28.1308 72.84 28.0608 73.19 28.0025L74.205 27.845C74.555 27.7867 74.8292 27.67 75.0275 27.495C75.2258 27.3083 75.3775 27.0342 75.4825 26.6725C75.7042 25.8792 75.9492 25.0158 76.2175 24.0825C76.4858 23.1492 76.76 22.1692 77.04 21.1425C77.32 20.1158 77.6 19.0717 77.88 18.01C78.1717 16.9483 78.4517 15.8925 78.72 14.8425C79 13.7808 79.2625 12.76 79.5075 11.78C79.7642 10.7883 79.9975 9.86083 80.2075 8.9975C80.4175 8.1225 80.6042 7.34083 80.7675 6.6525C80.8375 6.34917 80.82 6.11583 80.715 5.9525C80.6217 5.78917 80.4467 5.68417 80.19 5.6375L79.105 5.4275C78.8717 5.36916 78.6967 5.305 78.58 5.235C78.475 5.165 78.4283 5.06583 78.44 4.9375ZM79.525 16.925H85.825C86.35 16.925 86.77 16.7617 87.085 16.435C87.4 16.0967 87.5692 15.455 87.5925 14.51C87.6042 14.3467 87.645 14.2242 87.715 14.1425C87.785 14.0492 87.8842 14.0025 88.0125 14.0025C88.1875 14.0025 88.3158 14.0492 88.3975 14.1425C88.4908 14.2358 88.555 14.37 88.59 14.545L89.5175 19.69C89.5642 19.9117 89.535 20.075 89.43 20.18C89.3367 20.285 89.2142 20.3433 89.0625 20.355C88.9225 20.3667 88.8 20.3317 88.695 20.25C88.6017 20.1683 88.5083 20.0283 88.415 19.83C88.2167 19.305 88.0125 18.8908 87.8025 18.5875C87.6042 18.2725 87.3592 18.0508 87.0675 17.9225C86.7875 17.7942 86.42 17.73 85.965 17.73H79.2625L79.525 16.925ZM92.7593 21.79C92.7593 21.79 92.981 21.7025 93.4243 21.5275C93.8793 21.3408 94.4685 21.1017 95.1918 20.81C95.9268 20.5067 96.7143 20.1858 97.5543 19.8475C98.3943 19.4975 99.2051 19.165 99.9868 18.85C100.78 18.5233 101.457 18.2433 102.017 18.01L101.719 18.465C101.801 18.255 101.859 18.0158 101.894 17.7475C101.929 17.4792 101.947 17.1525 101.947 16.7675C101.947 15.9158 101.754 15.21 101.369 14.65C100.996 14.09 100.506 13.81 99.8993 13.81C99.2693 13.81 98.616 14.0375 97.9393 14.4925C97.2743 14.9475 96.6443 15.5833 96.0493 16.4C95.466 17.205 94.9701 18.1442 94.5618 19.2175C94.1651 20.2908 93.926 21.44 93.8443 22.665C93.716 24.415 93.9843 25.7275 94.6493 26.6025C95.326 27.4775 96.2593 27.915 97.4493 27.915C98.2076 27.915 98.9485 27.7633 99.6718 27.46C100.395 27.1567 101.037 26.7133 101.597 26.13C102.168 25.535 102.6 24.8 102.892 23.925C102.985 23.75 103.073 23.6275 103.154 23.5575C103.248 23.4875 103.347 23.4583 103.452 23.47C103.58 23.47 103.673 23.5225 103.732 23.6275C103.802 23.7325 103.813 23.9017 103.767 24.135C103.603 25.0217 103.201 25.8617 102.559 26.655C101.918 27.4483 101.072 28.09 100.022 28.58C98.9718 29.07 97.741 29.315 96.3293 29.315C95.1976 29.315 94.2468 29.0817 93.4768 28.615C92.7185 28.1367 92.1585 27.46 91.7968 26.585C91.4351 25.6983 91.2951 24.625 91.3768 23.365C91.4585 21.9883 91.7676 20.6758 92.3043 19.4275C92.841 18.1675 93.5351 17.0533 94.3868 16.085C95.2385 15.105 96.1835 14.335 97.2218 13.775C98.2718 13.2033 99.351 12.9175 100.459 12.9175C101.241 12.9175 101.906 13.0867 102.454 13.425C103.003 13.7633 103.423 14.2183 103.714 14.79C104.006 15.35 104.163 15.9683 104.187 16.645C104.187 16.7967 104.228 16.9133 104.309 16.995C104.391 17.0767 104.508 17.1 104.659 17.065C104.811 17.0417 104.922 17.0592 104.992 17.1175C105.062 17.1642 105.097 17.2458 105.097 17.3625C105.108 17.4908 105.05 17.6133 104.922 17.73C104.805 17.835 104.572 17.9575 104.222 18.0975C103.825 18.2492 103.271 18.465 102.559 18.745C101.859 19.025 101.083 19.34 100.232 19.69C99.3801 20.0283 98.5226 20.3725 97.6593 20.7225C96.796 21.0608 96.0026 21.37 95.2793 21.65C94.556 21.93 93.9726 22.1633 93.5293 22.35C93.086 22.525 92.8643 22.6125 92.8643 22.6125L92.7593 21.79ZM114.54 26.4625L117.498 17.9575C117.929 16.6975 118.069 15.8167 117.918 15.315C117.766 14.8133 117.41 14.5625 116.85 14.5625C116.173 14.5625 115.345 14.8775 114.365 15.5075C113.397 16.1258 112.423 17.0883 111.443 18.395C110.463 19.69 109.623 21.3408 108.923 23.3475C108.654 24.1292 108.45 24.7417 108.31 25.185C108.17 25.6283 108.077 25.9667 108.03 26.2C107.983 26.4333 107.96 26.6258 107.96 26.7775C107.96 27.0458 108.001 27.2617 108.083 27.425C108.164 27.5883 108.205 27.7925 108.205 28.0375C108.205 28.4225 108.018 28.7317 107.645 28.965C107.272 29.1983 106.782 29.315 106.175 29.315C105.638 29.315 105.318 29.0933 105.213 28.65C105.119 28.195 105.259 27.4483 105.633 26.41L108.888 17.1525C109.226 16.1842 109.354 15.5075 109.273 15.1225C109.191 14.7258 108.975 14.5275 108.625 14.5275C108.415 14.5275 108.176 14.6033 107.908 14.755C107.651 14.895 107.336 15.1633 106.963 15.56C106.811 15.7 106.683 15.7933 106.578 15.84C106.484 15.8867 106.391 15.8867 106.298 15.84C106.204 15.7933 106.158 15.7117 106.158 15.595C106.169 15.4667 106.222 15.315 106.315 15.14C106.712 14.4517 107.237 13.915 107.89 13.53C108.555 13.1333 109.255 12.935 109.99 12.935C110.503 12.935 110.912 13.0575 111.215 13.3025C111.53 13.5475 111.688 13.9267 111.688 14.44C111.688 14.755 111.629 15.1225 111.513 15.5425C111.408 15.9625 111.233 16.4817 110.988 17.1C110.754 17.7067 110.451 18.465 110.078 19.375C109.704 20.2733 109.261 21.3758 108.748 22.6825L108.818 21.86C109.739 19.6317 110.778 17.87 111.933 16.575C113.088 15.2683 114.231 14.335 115.363 13.775C116.494 13.215 117.486 12.935 118.338 12.935C119.073 12.935 119.615 13.1042 119.965 13.4425C120.327 13.7692 120.484 14.2767 120.438 14.965C120.438 15.2567 120.385 15.5833 120.28 15.945C120.187 16.295 120.035 16.7442 119.825 17.2925C119.627 17.8408 119.353 18.5467 119.003 19.41C118.664 20.2733 118.238 21.3583 117.725 22.665V21.86C118.413 20.2033 119.166 18.8033 119.983 17.66C120.799 16.5167 121.639 15.6008 122.503 14.9125C123.366 14.2125 124.2 13.7108 125.005 13.4075C125.81 13.0925 126.533 12.935 127.175 12.935C127.98 12.935 128.546 13.1275 128.873 13.5125C129.199 13.8975 129.333 14.4517 129.275 15.175C129.228 15.8983 129.024 16.7675 128.663 17.7825L126.125 25.0975C125.787 26.0892 125.664 26.7775 125.758 27.1625C125.851 27.5358 126.067 27.7225 126.405 27.7225C126.627 27.7225 126.866 27.6525 127.123 27.5125C127.379 27.3608 127.688 27.0925 128.05 26.7075C128.213 26.5558 128.342 26.4567 128.435 26.41C128.54 26.3633 128.633 26.3633 128.715 26.41C128.82 26.4567 128.867 26.5442 128.855 26.6725C128.843 26.7892 128.791 26.935 128.698 27.11C128.313 27.7983 127.793 28.3408 127.14 28.7375C126.487 29.1225 125.793 29.315 125.058 29.315C124.509 29.315 124.083 29.175 123.78 28.895C123.488 28.615 123.331 28.2008 123.308 27.6525C123.296 27.0925 123.43 26.4042 123.71 25.5875L126.335 17.9575C126.778 16.6975 126.918 15.8167 126.755 15.315C126.592 14.8133 126.236 14.5625 125.688 14.5625C125.023 14.5625 124.206 14.8775 123.238 15.5075C122.281 16.1375 121.318 17.1 120.35 18.395C119.382 19.69 118.542 21.3408 117.83 23.3475C117.573 24.1292 117.369 24.7417 117.218 25.185C117.078 25.6283 116.984 25.9725 116.938 26.2175C116.891 26.4508 116.868 26.6433 116.868 26.795C116.868 27.0517 116.908 27.2617 116.99 27.425C117.072 27.5883 117.113 27.7983 117.113 28.055C117.113 28.4283 116.926 28.7317 116.553 28.965C116.179 29.1983 115.695 29.315 115.1 29.315C114.738 29.315 114.476 29.2217 114.313 29.035C114.161 28.8483 114.103 28.545 114.138 28.125C114.173 27.6933 114.307 27.1392 114.54 26.4625ZM134.062 25.0975C133.712 26.0658 133.584 26.7483 133.677 27.145C133.771 27.53 133.987 27.7225 134.325 27.7225C134.547 27.7225 134.786 27.6467 135.042 27.495C135.299 27.3433 135.614 27.075 135.987 26.69C136.139 26.55 136.262 26.4567 136.355 26.41C136.46 26.3633 136.559 26.3575 136.652 26.3925C136.746 26.4392 136.787 26.5267 136.775 26.655C136.763 26.7833 136.717 26.935 136.635 27.11C136.238 27.7867 135.713 28.3233 135.06 28.72C134.418 29.105 133.73 29.2975 132.995 29.2975C132.435 29.2975 132.003 29.1575 131.7 28.8775C131.397 28.5975 131.239 28.1833 131.227 27.635C131.216 27.075 131.356 26.3867 131.647 25.57L134.762 17.205C135.124 16.2017 135.258 15.5075 135.165 15.1225C135.083 14.7258 134.867 14.5275 134.517 14.5275C134.307 14.5275 134.068 14.6033 133.8 14.755C133.543 14.895 133.228 15.1633 132.855 15.56C132.703 15.7 132.575 15.7933 132.47 15.84C132.377 15.8867 132.283 15.8867 132.19 15.84C132.097 15.7933 132.05 15.7117 132.05 15.595C132.062 15.4667 132.114 15.315 132.207 15.14C132.604 14.4517 133.129 13.915 133.782 13.53C134.436 13.1333 135.118 12.935 135.83 12.935C136.367 12.935 136.787 13.075 137.09 13.355C137.393 13.6233 137.557 14.0433 137.58 14.615C137.615 15.175 137.475 15.8808 137.16 16.7325L134.062 25.0975ZM137.16 9.1725C136.612 9.1725 136.192 9.00917 135.9 8.6825C135.608 8.34417 135.503 7.94167 135.585 7.475C135.643 7.10167 135.789 6.75167 136.022 6.425C136.267 6.08667 136.571 5.81833 136.932 5.62C137.294 5.41 137.691 5.305 138.122 5.305C138.694 5.305 139.114 5.47417 139.382 5.8125C139.662 6.13917 139.756 6.5475 139.662 7.0375C139.616 7.41083 139.47 7.76083 139.225 8.0875C138.992 8.41417 138.694 8.67667 138.332 8.875C137.971 9.07333 137.58 9.1725 137.16 9.1725ZM140.066 15.84C139.973 15.7933 139.926 15.7117 139.926 15.595C139.938 15.4667 139.99 15.315 140.084 15.14C140.492 14.4517 141.023 13.915 141.676 13.53C142.33 13.1333 143.024 12.935 143.759 12.935C144.272 12.935 144.68 13.0575 144.984 13.3025C145.299 13.5475 145.456 13.9267 145.456 14.44C145.456 14.7433 145.398 15.1108 145.281 15.5425C145.165 15.9742 144.984 16.505 144.739 17.135C144.505 17.7533 144.202 18.5175 143.829 19.4275C143.455 20.3258 143.018 21.405 142.516 22.665L142.586 21.86C143.275 20.1917 144.039 18.7858 144.879 17.6425C145.73 16.4992 146.594 15.5833 147.469 14.895C148.355 14.195 149.213 13.6933 150.041 13.39C150.87 13.0867 151.61 12.935 152.264 12.935C153.174 12.935 153.798 13.1275 154.136 13.5125C154.486 13.8975 154.626 14.4517 154.556 15.175C154.486 15.8983 154.27 16.7675 153.909 17.7825L151.371 25.0975C151.021 26.0892 150.893 26.7775 150.986 27.1625C151.08 27.5358 151.295 27.7225 151.634 27.7225C151.855 27.7225 152.095 27.6525 152.351 27.5125C152.608 27.3608 152.923 27.0925 153.296 26.7075C153.448 26.5558 153.57 26.4567 153.664 26.41C153.769 26.3633 153.862 26.3633 153.944 26.41C154.049 26.4567 154.095 26.5442 154.084 26.6725C154.072 26.7892 154.025 26.935 153.944 27.11C153.547 27.7983 153.022 28.3408 152.369 28.7375C151.715 29.1225 151.027 29.315 150.304 29.315C149.744 29.315 149.312 29.175 149.009 28.895C148.717 28.615 148.565 28.2008 148.554 27.6525C148.542 27.0925 148.67 26.4042 148.939 25.5875L151.581 17.9575C152.036 16.6742 152.182 15.7875 152.019 15.2975C151.867 14.8075 151.453 14.5625 150.776 14.5625C150.251 14.5625 149.633 14.7375 148.921 15.0875C148.221 15.4375 147.492 15.9742 146.734 16.6975C145.975 17.4092 145.24 18.3192 144.529 19.4275C143.829 20.5358 143.216 21.8425 142.691 23.3475C142.423 24.1292 142.219 24.7417 142.079 25.185C141.939 25.6283 141.845 25.9667 141.799 26.2C141.752 26.4333 141.729 26.6258 141.729 26.7775C141.729 27.0458 141.77 27.2617 141.851 27.425C141.933 27.5883 141.974 27.7925 141.974 28.0375C141.974 28.4225 141.787 28.7317 141.414 28.965C141.04 29.1983 140.556 29.315 139.961 29.315C139.425 29.315 139.104 29.0992 138.999 28.6675C138.894 28.2242 139.022 27.5008 139.384 26.4975L142.639 17.205C142.989 16.2017 143.123 15.5075 143.041 15.1225C142.96 14.7258 142.744 14.5275 142.394 14.5275C142.184 14.5275 141.945 14.6033 141.676 14.755C141.42 14.895 141.105 15.1633 140.731 15.56C140.58 15.7 140.451 15.7933 140.346 15.84C140.253 15.8867 140.16 15.8867 140.066 15.84ZM167.603 25.045C167.347 26.0833 167.253 26.795 167.323 27.18C167.405 27.5533 167.598 27.74 167.901 27.74C168.134 27.74 168.373 27.6642 168.618 27.5125C168.863 27.3608 169.167 27.0925 169.528 26.7075C169.68 26.5675 169.803 26.4742 169.896 26.4275C170.001 26.3808 170.1 26.3808 170.193 26.4275C170.298 26.4742 170.345 26.5617 170.333 26.69C170.322 26.8067 170.269 26.9525 170.176 27.1275C169.791 27.8042 169.266 28.3408 168.601 28.7375C167.948 29.1225 167.283 29.315 166.606 29.315C166.081 29.315 165.673 29.1808 165.381 28.9125C165.101 28.6442 164.961 28.23 164.961 27.67C164.961 27.4133 164.984 27.1158 165.031 26.7775C165.089 26.4392 165.188 26.0017 165.328 25.465C165.468 24.9167 165.667 24.2167 165.923 23.365C166.18 22.5133 166.513 21.4458 166.921 20.1625L167.183 20.46C166.437 22.3383 165.591 23.9367 164.646 25.255C163.701 26.5733 162.698 27.5825 161.636 28.2825C160.586 28.9708 159.524 29.315 158.451 29.315C157.366 29.315 156.526 28.93 155.931 28.16C155.336 27.3783 155.12 26.1242 155.283 24.3975C155.388 23.2192 155.686 22.07 156.176 20.95C156.666 19.83 157.302 18.7858 158.083 17.8175C158.877 16.8492 159.775 15.9975 160.778 15.2625C161.782 14.5275 162.849 13.9558 163.981 13.5475C165.124 13.1392 166.285 12.935 167.463 12.935C168.21 12.935 168.834 12.9933 169.336 13.11C169.838 13.215 170.211 13.3667 170.456 13.565C170.713 13.7517 170.835 13.9617 170.823 14.195C170.812 14.3817 170.748 14.5392 170.631 14.6675C170.526 14.7842 170.415 14.9067 170.298 15.035C170.182 15.1517 170.1 15.3033 170.053 15.49L167.603 25.045ZM157.698 24.2925C157.558 25.6342 157.663 26.585 158.013 27.145C158.375 27.705 158.888 27.985 159.553 27.985C160.137 27.985 160.761 27.7633 161.426 27.32C162.091 26.865 162.756 26.235 163.421 25.43C164.098 24.6133 164.728 23.6742 165.311 22.6125C165.906 21.5392 166.425 20.3842 166.868 19.1475C167.323 17.9108 167.662 16.6392 167.883 15.3325C167.965 14.8425 167.913 14.4867 167.726 14.265C167.539 14.0317 167.242 13.915 166.833 13.915C165.993 13.915 165.159 14.1075 164.331 14.4925C163.503 14.8658 162.715 15.385 161.968 16.05C161.222 16.715 160.545 17.485 159.938 18.36C159.332 19.235 158.836 20.18 158.451 21.195C158.066 22.1983 157.815 23.2308 157.698 24.2925ZM78.066 48.544H93.852V49.57H78.066V48.544ZM79.614 59.056C79.614 59.284 79.686 59.47 79.83 59.614C79.986 59.746 80.196 59.836 80.46 59.884L81.882 60.1C82.242 60.172 82.422 60.334 82.422 60.586C82.422 60.706 82.374 60.808 82.278 60.892C82.194 60.964 82.044 61 81.828 61H74.646C74.442 61 74.292 60.964 74.196 60.892C74.1 60.808 74.052 60.706 74.052 60.586C74.052 60.334 74.232 60.172 74.592 60.1L76.014 59.884C76.29 59.836 76.5 59.746 76.644 59.614C76.788 59.47 76.86 59.284 76.86 59.056V37.744C76.86 37.516 76.788 37.336 76.644 37.204C76.5 37.06 76.29 36.964 76.014 36.916L74.592 36.7C74.232 36.628 74.052 36.466 74.052 36.214C74.052 36.082 74.1 35.98 74.196 35.908C74.292 35.836 74.442 35.8 74.646 35.8H81.828C82.044 35.8 82.194 35.836 82.278 35.908C82.374 35.98 82.422 36.082 82.422 36.214C82.422 36.466 82.242 36.628 81.882 36.7L80.46 36.916C80.196 36.964 79.986 37.06 79.83 37.204C79.686 37.336 79.614 37.516 79.614 37.744V59.056ZM95.652 59.056C95.652 59.284 95.724 59.47 95.868 59.614C96.012 59.746 96.222 59.836 96.498 59.884L97.92 60.1C98.28 60.172 98.46 60.334 98.46 60.586C98.46 60.706 98.412 60.808 98.316 60.892C98.232 60.964 98.082 61 97.866 61H90.684C90.48 61 90.33 60.964 90.234 60.892C90.138 60.808 90.09 60.706 90.09 60.586C90.09 60.334 90.27 60.172 90.63 60.1L92.052 59.884C92.316 59.836 92.52 59.746 92.664 59.614C92.82 59.47 92.898 59.284 92.898 59.056V37.744C92.898 37.516 92.82 37.336 92.664 37.204C92.52 37.06 92.316 36.964 92.052 36.916L90.63 36.7C90.27 36.628 90.09 36.466 90.09 36.214C90.09 36.082 90.138 35.98 90.234 35.908C90.33 35.836 90.48 35.8 90.684 35.8H97.866C98.082 35.8 98.232 35.836 98.316 35.908C98.412 35.98 98.46 36.082 98.46 36.214C98.46 36.466 98.28 36.628 97.92 36.7L96.498 36.916C96.222 36.964 96.012 37.06 95.868 37.204C95.724 37.336 95.652 37.516 95.652 37.744V59.056ZM114.802 50.686C114.802 51.106 114.67 51.424 114.406 51.64C114.154 51.844 113.782 51.946 113.29 51.946H101.59V51.118H111.4C111.928 51.118 112.192 50.89 112.192 50.434C112.192 48.778 111.796 47.458 111.004 46.474C110.212 45.49 109.15 44.998 107.818 44.998C106.738 44.998 105.796 45.292 104.992 45.88C104.2 46.468 103.582 47.29 103.138 48.346C102.694 49.402 102.472 50.632 102.472 52.036C102.472 54.484 103.06 56.368 104.236 57.688C105.424 58.996 106.954 59.65 108.826 59.65C110.122 59.65 111.238 59.32 112.174 58.66C113.11 58 113.716 57.16 113.992 56.14C114.064 55.984 114.136 55.882 114.208 55.834C114.28 55.774 114.364 55.744 114.46 55.744C114.592 55.744 114.682 55.792 114.73 55.888C114.79 55.984 114.814 56.098 114.802 56.23C114.706 57.19 114.352 58.06 113.74 58.84C113.14 59.62 112.348 60.238 111.364 60.694C110.38 61.15 109.282 61.378 108.07 61.378C106.462 61.378 105.058 61.036 103.858 60.352C102.658 59.656 101.728 58.678 101.068 57.418C100.408 56.158 100.078 54.682 100.078 52.99C100.078 51.298 100.408 49.786 101.068 48.454C101.728 47.11 102.658 46.042 103.858 45.25C105.07 44.458 106.492 44.062 108.124 44.062C109.444 44.062 110.602 44.344 111.598 44.908C112.606 45.472 113.392 46.252 113.956 47.248C114.52 48.232 114.802 49.378 114.802 50.686ZM126.792 58.912V58.624L126.684 58.498V48.652C126.684 47.404 126.384 46.456 125.784 45.808C125.184 45.16 124.326 44.836 123.21 44.836C122.094 44.836 121.272 45.07 120.744 45.538C120.228 45.994 119.97 46.522 119.97 47.122V48.31C119.97 48.754 119.832 49.09 119.556 49.318C119.28 49.546 118.92 49.66 118.476 49.66C118.08 49.66 117.762 49.54 117.522 49.3C117.294 49.048 117.18 48.724 117.18 48.328C117.18 47.62 117.438 46.942 117.954 46.294C118.482 45.646 119.226 45.112 120.186 44.692C121.158 44.272 122.316 44.062 123.66 44.062C125.508 44.062 126.882 44.488 127.782 45.34C128.682 46.192 129.132 47.326 129.132 48.742V58.822C129.132 59.278 129.21 59.602 129.366 59.794C129.534 59.986 129.756 60.082 130.032 60.082C130.344 60.082 130.566 60.01 130.698 59.866C130.842 59.722 130.95 59.578 131.022 59.434C131.07 59.362 131.118 59.302 131.166 59.254C131.226 59.206 131.298 59.182 131.382 59.182C131.466 59.182 131.532 59.212 131.58 59.272C131.628 59.332 131.652 59.422 131.652 59.542C131.652 59.818 131.562 60.1 131.382 60.388C131.202 60.664 130.938 60.898 130.59 61.09C130.242 61.282 129.804 61.378 129.276 61.378C128.484 61.378 127.872 61.174 127.44 60.766C127.008 60.358 126.792 59.74 126.792 58.912ZM116.334 57.328C116.334 55.996 116.916 54.892 118.08 54.016C119.256 53.14 120.882 52.702 122.958 52.702C123.822 52.702 124.614 52.786 125.334 52.954C126.066 53.122 126.72 53.332 127.296 53.584L127.116 54.286C126.552 54.058 125.958 53.866 125.334 53.71C124.71 53.554 124.032 53.476 123.3 53.476C121.932 53.476 120.864 53.788 120.096 54.412C119.328 55.036 118.944 55.882 118.944 56.95C118.944 57.982 119.25 58.78 119.862 59.344C120.486 59.896 121.278 60.172 122.238 60.172C123.162 60.172 124.056 59.968 124.92 59.56C125.784 59.14 126.534 58.534 127.17 57.742L127.494 58.318C126.762 59.29 125.844 60.046 124.74 60.586C123.648 61.114 122.49 61.378 121.266 61.378C119.814 61.378 118.626 61.018 117.702 60.298C116.79 59.578 116.334 58.588 116.334 57.328ZM137.132 35.314V59.092C137.132 59.344 137.198 59.542 137.33 59.686C137.462 59.83 137.648 59.926 137.888 59.974L138.878 60.154C139.058 60.19 139.19 60.244 139.274 60.316C139.37 60.388 139.418 60.484 139.418 60.604C139.418 60.724 139.37 60.82 139.274 60.892C139.178 60.964 139.034 61 138.842 61H132.92C132.728 61 132.584 60.964 132.488 60.892C132.404 60.82 132.362 60.724 132.362 60.604C132.362 60.496 132.404 60.406 132.488 60.334C132.572 60.262 132.704 60.208 132.884 60.172L133.928 59.974C134.168 59.914 134.348 59.818 134.468 59.686C134.6 59.554 134.666 59.356 134.666 59.092V37.276C134.666 37.072 134.624 36.922 134.54 36.826C134.468 36.718 134.336 36.658 134.144 36.646L132.632 36.628C132.464 36.616 132.344 36.58 132.272 36.52C132.2 36.46 132.164 36.382 132.164 36.286C132.164 36.19 132.2 36.106 132.272 36.034C132.344 35.962 132.482 35.89 132.686 35.818L135.422 34.936C135.698 34.828 135.92 34.756 136.088 34.72C136.268 34.684 136.412 34.666 136.52 34.666C136.724 34.666 136.874 34.726 136.97 34.846C137.078 34.954 137.132 35.11 137.132 35.314ZM141.444 45.502L140.274 45.25C139.986 45.19 139.794 45.118 139.698 45.034C139.602 44.95 139.554 44.86 139.554 44.764C139.554 44.632 139.596 44.536 139.68 44.476C139.776 44.416 139.902 44.386 140.058 44.386H141.336C141.648 44.386 141.894 44.344 142.074 44.26C142.254 44.164 142.392 44.002 142.488 43.774L143.514 41.182C143.61 40.966 143.712 40.81 143.82 40.714C143.928 40.618 144.054 40.57 144.198 40.57C144.354 40.57 144.468 40.618 144.54 40.714C144.624 40.798 144.666 40.918 144.666 41.074V57.328C144.666 58.144 144.84 58.768 145.188 59.2C145.548 59.62 146.04 59.83 146.664 59.83C147.072 59.83 147.396 59.776 147.636 59.668C147.876 59.548 148.068 59.41 148.212 59.254C148.356 59.098 148.482 58.954 148.59 58.822C148.71 58.678 148.848 58.588 149.004 58.552C149.112 58.552 149.19 58.588 149.238 58.66C149.298 58.72 149.328 58.822 149.328 58.966C149.304 59.338 149.142 59.698 148.842 60.046C148.542 60.394 148.134 60.682 147.618 60.91C147.114 61.138 146.532 61.252 145.872 61.252C144.768 61.252 143.88 60.958 143.208 60.37C142.536 59.77 142.2 58.87 142.2 57.67V46.42C142.2 46.168 142.146 45.97 142.038 45.826C141.93 45.682 141.732 45.574 141.444 45.502ZM143.352 45.34V44.386H148.644C148.836 44.386 148.974 44.422 149.058 44.494C149.154 44.554 149.202 44.644 149.202 44.764C149.202 44.932 149.112 45.07 148.932 45.178C148.764 45.286 148.5 45.34 148.14 45.34H143.352ZM154.946 35.314V59.092C154.946 59.344 155.012 59.542 155.144 59.686C155.276 59.83 155.462 59.926 155.702 59.974L156.674 60.154C157.022 60.238 157.196 60.382 157.196 60.586C157.196 60.862 156.998 61 156.602 61H150.716C150.536 61 150.398 60.964 150.302 60.892C150.206 60.82 150.158 60.724 150.158 60.604C150.158 60.496 150.2 60.406 150.284 60.334C150.38 60.262 150.512 60.208 150.68 60.172L151.724 59.974C151.964 59.914 152.15 59.818 152.282 59.686C152.414 59.554 152.48 59.356 152.48 59.092V37.276C152.48 37.072 152.438 36.922 152.354 36.826C152.282 36.718 152.15 36.658 151.958 36.646L150.446 36.628C150.266 36.616 150.14 36.58 150.068 36.52C149.996 36.46 149.96 36.382 149.96 36.286C149.96 36.19 149.996 36.106 150.068 36.034C150.152 35.962 150.29 35.89 150.482 35.818L153.218 34.936C153.494 34.84 153.716 34.774 153.884 34.738C154.064 34.69 154.214 34.666 154.334 34.666C154.538 34.666 154.688 34.726 154.784 34.846C154.892 34.954 154.946 35.11 154.946 35.314ZM154.514 48.454L153.992 47.95L154.82 47.23C156.128 46.09 157.25 45.28 158.186 44.8C159.122 44.308 160.046 44.062 160.958 44.062C162.338 44.062 163.4 44.518 164.144 45.43C164.888 46.33 165.356 47.578 165.548 49.174L166.772 58.984C166.808 59.272 166.892 59.5 167.024 59.668C167.168 59.824 167.372 59.932 167.636 59.992L168.536 60.172C168.704 60.208 168.83 60.262 168.914 60.334C168.998 60.406 169.04 60.496 169.04 60.604C169.04 60.724 168.992 60.82 168.896 60.892C168.812 60.964 168.674 61 168.482 61H162.542C162.146 61 161.948 60.862 161.948 60.586C161.948 60.382 162.116 60.238 162.452 60.154L163.496 59.974C163.772 59.926 163.982 59.818 164.126 59.65C164.27 59.482 164.324 59.26 164.288 58.984L163.082 49.57C162.914 48.226 162.56 47.224 162.02 46.564C161.492 45.892 160.73 45.556 159.734 45.556C159.098 45.556 158.42 45.742 157.7 46.114C156.992 46.474 156.194 47.026 155.306 47.77L154.514 48.454Z" fill="#2D322C"/>
</svg>
